<svg width="1200" height="1200" viewBox="0 0 1200 1200" fill="none" xmlns="http://www.w3.org/2000/svg">
  <rect width="1200" height="1200" fill="#120B1E"/>
  <rect width="1200" height="1200" fill="url(#bg)"/>
  <circle cx="928" cy="250" r="236" fill="#FF7A00" fill-opacity="0.34"/>
  <circle cx="301" cy="337" r="298" fill="#7C4DFF" fill-opacity="0.28"/>
  <circle cx="593" cy="919" r="372" fill="#0ED2F7" fill-opacity="0.22"/>
  <path d="M170 883C170 769.229 262.229 677 376 677H824C937.771 677 1030 769.229 1030 883V1014H170V883Z" fill="#180F27" fill-opacity="0.88"/>
  <rect x="338" y="328" width="524" height="510" rx="262" fill="url(#subject)"/>
  <path d="M497 493C497 412.366 562.366 347 643 347H649C729.634 347 795 412.366 795 493V581H497V493Z" fill="#F3C89E"/>
  <rect x="480" y="561" width="334" height="295" rx="112" fill="#EFE7E2"/>
  <rect x="520" y="628" width="254" height="176" rx="88" fill="#FFFFFF"/>
  <ellipse cx="598" cy="503" rx="28" ry="22" fill="#2C1E1A"/>
  <ellipse cx="704" cy="503" rx="28" ry="22" fill="#2C1E1A"/>
  <path d="M599 604C632.5 625.333 667 625.333 702.5 604" stroke="#7F5A46" stroke-width="17" stroke-linecap="round"/>
  <path d="M487 414C547.651 349.305 665.933 316.657 757 347.5C823.489 370.016 855.5 431.5 850 506.5C831.5 461.5 799.5 432 736 409.5C666.185 384.763 575.798 390.279 487 414Z" fill="#0F0B14"/>
  <rect x="225" y="160" width="256" height="84" rx="42" fill="#FFFFFF" fill-opacity="0.1" stroke="#FFFFFF" stroke-opacity="0.2"/>
  <text x="257" y="213" fill="white" fill-opacity="0.95" font-family="Arial, sans-serif" font-size="34" font-weight="700">Editorial Portrait</text>
  <defs>
    <radialGradient id="bg" cx="0" cy="0" r="1" gradientUnits="userSpaceOnUse" gradientTransform="translate(600 600) rotate(90) scale(720)">
      <stop stop-color="#251437"/>
      <stop offset="1" stop-color="#09070E"/>
    </radialGradient>
    <linearGradient id="subject" x1="600" y1="328" x2="600" y2="838" gradientUnits="userSpaceOnUse">
      <stop stop-color="#FFDBB5"/>
      <stop offset="1" stop-color="#B07B5C"/>
    </linearGradient>
  </defs>
</svg>
