<svg width="1200" height="1200" viewBox="0 0 1200 1200" fill="none" xmlns="http://www.w3.org/2000/svg">
  <rect width="1200" height="1200" fill="#07131E"/>
  <rect width="1200" height="1200" fill="url(#bg)"/>
  <circle cx="927" cy="310" r="261" fill="#00D1FF" fill-opacity="0.28"/>
  <circle cx="303" cy="290" r="214" fill="#49FF9B" fill-opacity="0.19"/>
  <circle cx="596" cy="985" r="390" fill="#0A5FFF" fill-opacity="0.20"/>
  <rect x="192" y="798" width="816" height="183" rx="40" fill="#081924" fill-opacity="0.78"/>
  <rect x="229" y="731" width="742" height="96" rx="48" fill="#0D2432" fill-opacity="0.84"/>
  <rect x="264" y="663" width="672" height="88" rx="44" fill="#163446" fill-opacity="0.88"/>
  <path d="M417 505C417 400.065 502.065 315 607 315H609C713.935 315 799 400.065 799 505V662H417V505Z" fill="url(#jar)"/>
  <rect x="467" y="377" width="280" height="95" rx="36" fill="#F2F8FC"/>
  <rect x="507" y="420" width="200" height="211" rx="60" fill="#EFF8FF" fill-opacity="0.87"/>
  <rect x="442" y="662" width="332" height="73" rx="36.5" fill="#0E2230"/>
  <rect x="345" y="234" width="525" height="470" rx="84" stroke="#D8F7FF" stroke-opacity="0.24" stroke-width="6"/>
  <path d="M352 241L863 697" stroke="#BFFFFF" stroke-opacity="0.1" stroke-width="5"/>
  <path d="M863 241L352 697" stroke="#BFFFFF" stroke-opacity="0.1" stroke-width="5"/>
  <rect x="719" y="170" width="266" height="82" rx="41" fill="#FFFFFF" fill-opacity="0.1" stroke="#FFFFFF" stroke-opacity="0.2"/>
  <text x="756" y="222" fill="white" fill-opacity="0.95" font-family="Arial, sans-serif" font-size="34" font-weight="700">Product Hero</text>
  <defs>
    <radialGradient id="bg" cx="0" cy="0" r="1" gradientUnits="userSpaceOnUse" gradientTransform="translate(600 600) rotate(90) scale(720)">
      <stop stop-color="#12304A"/>
      <stop offset="1" stop-color="#050B10"/>
    </radialGradient>
    <linearGradient id="jar" x1="608" y1="315" x2="608" y2="662" gradientUnits="userSpaceOnUse">
      <stop stop-color="#EAF9FF"/>
      <stop offset="1" stop-color="#8DC7FF"/>
    </linearGradient>
  </defs>
</svg>
